<svg xmlns="http://www.w3.org/2000/svg" viewBox="0 0 6780 2842"><path d="M3484.6 290.7c-2.1 20.5-3.1 409.1-1.7 690.3.8 160.1 0 323.9-1.9 388-1.5 50.6-1.6 153.5-.1 182.5 4.4 87.6 12.4 133.8 32.7 188 38.3 102.2 109 179.9 202.9 222.9 32.9 15 70.9 26.2 108 31.6 13.7 1.9 18.1 2 217.3 2H4245v-436.3l-13.2.7c-37 2-51.6 2.3-64.9 1.5-41.8-2.5-68-15.4-85.3-42.2-6.8-10.5-8.7-14.2-12.6-25.2-13.1-37.1-17.6-95.6-15-195.5.6-25.6 1.5-65.9 1.8-89.5l.7-43.1 3.3-6.6c3.9-8 14.3-18.2 22.5-22.3 9.8-4.7 15.4-5 89.2-4.6 37.4.2 83.5.5 102.5.5 36.8.1 90.1-1.2 91.1-2.3.6-.6-3-417.7-3.7-419.9-.3-.9-28.4-1.2-136.5-1.2h-136.1l-6.2-3.2c-11.6-6.2-20.5-17.8-24-31.3-1.5-5.9-2.8-22.6-4.3-55.5-.4-9.1-.6-70.7-.4-137 .1-66.3-.1-137.9-.5-159.3l-.7-38.7h-567.5zM2550 654.6c-36.1 3.1-50.6 5.2-79 11-86.1 17.6-167.5 54-234 104.5-19.2 14.6-30.7 24.6-48 41.9-40.7 40.6-73.7 87.8-102.5 146.5-15.1 30.9-23.4 51.2-35.7 87.5-47.9 141.5-57.9 310.6-27.3 464.5 19.8 100 54.9 188.2 104.3 262.5 20.2 30.4 37.6 51.5 64.6 78.6 21.3 21.2 34 32.2 54.1 46.9 57.7 42 130.3 73.2 204.5 87.9 39.4 7.9 61.3 10 102.5 10 35.4 0 49.4-1 78.3-5.9 85.8-14.6 160.1-56.3 209.7-118.1 11-13.6 25.8-36 30.7-46.3 13-27.7 18.1-37.2 19.7-36.9 1.5.3 1.6 8.1 1.9 90.6l.2 90.2h486.1l-.6-105.8c-.8-139.1-4.5-1059.4-4.5-1128.5V682h-476v63.7c0 53.4-.2 63.5-1.3 62.3-.8-.8-7.8-11.4-15.6-23.5-11.5-17.7-15.8-23.4-21.9-29.3-57.7-54.9-134.1-88.5-224.3-98.8-13.6-1.5-74.3-2.8-85.9-1.8m190 457.2c39.2 9.2 70.4 31.6 94.9 68.3 21 31.6 34.5 71 39.7 115.9 2 17.5 1.5 55.4-1 71.8-5.5 36.1-17.9 70.9-34.2 96-25.4 38.9-62.9 64.1-106.5 71.7-21.7 3.8-48 3.7-66.9-.1-32.5-6.6-63.4-25.1-84.9-50.9-24.2-29.1-40.4-65.7-47.6-108-9.3-54.6-3-110.6 17.9-159 10.3-23.7 23.6-43.5 41.1-61 13.7-13.7 24.9-22 40.3-29.8 16.9-8.6 32.4-13.5 51.2-16.3 13.9-1.9 44.8-1.2 56 1.4M1303 657c-143.8 9.2-265 51.1-365.6 126.3-38 28.4-79.1 68.1-109.1 105.5-61.1 76-104.7 166-129.1 266.2-22.9 93.7-27.2 193.1-12.6 289 25.8 170 109 318.3 233.9 417.2 79.6 62.9 174.4 105.6 281.7 126.7 185 36.4 377.8 1.3 524.4-95.5 34.2-22.7 59.8-43.6 90.5-74.3 44.5-44.6 77-89.5 104.7-144.6 24-48 46.4-117.1 55.6-172 4.4-26.2 6.5-63.6 3.8-68.3l-1.3-2.2h-483.4l-4.8 11.5c-8.6 20.5-20.5 38.4-35.6 53.6-19.7 19.8-42 32.2-69.4 38.7-10.2 2.4-13 2.6-31.2 2.6-17.1 0-21.5-.3-30.4-2.3-70.2-15.4-122.6-72.1-136.6-147.6-6.7-36.2-5.9-82.9 2-122 17.3-85.6 59.6-134.6 129.5-149.7 9.1-1.9 13.4-2.2 32-2.2s22.9.3 32 2.2c30.1 6.5 53.6 18.4 73.2 37 23.1 21.9 36.3 49.7 38.5 80.8l.6 8.2 44.1.6c94.7 1.3 432.9 2.7 433.8 1.8 5.5-5.5 2.5-57.5-6.2-107.9-15.3-88.5-50.2-171.1-101.1-239.4-53.6-71.9-122.3-128.4-207.4-170.4-77.8-38.4-159.4-60.4-254.5-68.6-16.4-1.4-84.8-2-102-.9m3718.5 1.1c-160.7 9.4-306 66-418 162.8-62.5 54.1-113.8 119.7-150.1 192.3-38.1 76-59.6 152.7-68.1 241.8-2.5 26.3-2.5 98.6 0 125 7.6 80.7 23 147.7 49.4 214.4 76.3 193.3 237.9 332.6 447.2 385.5 195.7 49.5 407 14.8 567.8-93.2 106.2-71.3 186.3-170.9 234.3-291.2 50.5-126.6 65.3-269.5 41.5-399.2-32.4-175.9-129.9-327.3-274-425.5-89.4-60.9-196.9-99.3-309-110.2-36-3.6-85.4-4.6-121-2.5m60 456.9c25.9 4.2 44 11.4 65.7 25.9 25.3 16.9 46.3 41.9 61.8 73.6 21.8 44.4 30.1 97.8 23.4 149.5-10.2 78.9-53.2 138.8-116.4 162.3-21.4 7.9-45.1 11.3-73.4 10.4-38.4-1.2-65.5-11.4-93.4-35-51.8-43.8-77.6-135.7-62.7-223.1 14.5-85.1 60.6-144.8 124.4-161.1 19.1-4.9 49.6-6 70.6-2.5m-2864 1211.7c-43.9 5.6-75.6 38.7-85.1 88.8-2.3 12.2-2.3 36.7 0 49.5 8.1 44.9 35.3 77.7 73.2 88.1 23.2 6.3 50.5 4.8 71.4-4 13.2-5.5 27.8-16.8 36.6-28.2 8.3-10.8 14.8-28 16.1-43 .9-10.3 1.6-10-26-9.7l-23.1.3-4.9 11.6c-2.6 6.3-6.5 13.8-8.5 16.5-6.7 8.8-17.5 13.4-31.6 13.4-23.2-.1-40.3-15.4-47.8-42.6-1.8-6.6-2.1-10.7-2.2-24.9-.1-20.3 1.8-29.5 8.9-44.2 7.6-15.5 16.6-22.7 31.9-25.4 17.8-3 33.2 3.7 43.5 19.2 2.1 3.2 5.1 9 6.7 12.9l2.7 7h49l-.6-9.3c-.7-12-2.6-19.1-8.3-30.4-14.6-29.2-47.3-46.6-86.8-46.2-6.6.1-13.4.4-15.1.6m226 .8c-11.4 1.9-18.3 3.9-27.1 8-30.4 14-51.5 44.1-57.9 82.4-2.6 15.2-1.7 41.7 1.9 55.7 8.6 34.6 27.4 59.9 54.3 73.4 25.1 12.5 62 13.3 89.7 1.8 22.6-9.3 42.2-28.5 53.1-52 15.9-34.5 15.1-79.8-2.1-114-13.8-27.4-36.4-46-64.9-53.4-12.7-3.3-33.4-4.1-47-1.9m39 50c15.4 7.5 26.5 24.6 30.4 46.9 1.6 8.9 1.3 28.5-.5 37.4-6.2 30.2-24.6 48.2-49.4 48.2-24 0-41.2-15.5-48.7-43.8-2.2-8.3-2.6-11.8-2.6-24.7-.1-21.7 3.5-35.3 13-49.7 8.2-12.4 16.9-17.6 31.5-18.7 11.8-.8 17.6.1 26.3 4.4m1490.7-50.4c-22.2 2.9-40.9 11.8-55.5 26.6-17.1 17.3-27.4 38.7-31.7 65.8-1.6 9.8-1.3 34 .5 45.2 6.9 42.6 32.9 76 68 87.2 13.5 4.3 33.1 6.6 44.8 5.1 27.1-3.4 46.2-11.8 62.5-27.3 39.1-37.6 46.2-107.7 16-156.5-9.1-14.6-24.7-29.1-39.5-36.5-17.3-8.8-42.7-12.5-65.1-9.6m30.3 47.4c8.4 2.2 15 6.1 20.7 12.4 23.7 25.9 23.5 82.8-.5 108.7-8.9 9.7-20 14.4-33.5 14.4-22.8 0-41.2-16.6-48.3-43.8-3.3-12.2-3.7-32-.9-45.2 2.6-12.8 6.7-22.7 12.3-30.1 7-9.3 14.6-14.7 23.4-16.8 6.2-1.5 20.4-1.2 26.8.4m540.5-47.9c-32.4 3.7-50.3 12-67.3 31.1-36.4 41.1-37.9 116.6-3.1 162.3 9.8 13 25.4 24.6 40 29.9 13.9 5.1 23.2 6.5 40.9 6.5 14-.1 17.3-.4 26-2.7 19.1-5 36.9-16 48-29.5 10.6-12.7 17.9-31 19.2-47.8l.6-8.4-25.8.2-25.8.3-2.1 8c-4 14.9-11.7 24.9-23.4 30.3-4.6 2.1-7.6 2.7-15.3 3-21.4.9-34.6-7-43.9-26.3-6.2-12.8-8.3-23.2-8.4-41.5-.1-16.3.7-22 5-35.1 6.7-20.6 18.4-31.4 37.1-34.1 22.3-3.2 40.4 8.9 48.4 32.2l2.4 7h24.3c20.6 0 24.3-.2 24.8-1.5 1-2.4-1.6-21-3.8-27.8-10.9-33.7-41.5-54.1-83.8-56-5.8-.3-12.1-.3-14-.1m-1070 1.8c-18.1 4-32.4 12.9-40.2 24.8-10.4 15.9-11 30.8-2.3 59.4 2.5 8 4.5 14.7 4.5 14.9 0 .1-2.9 2.1-6.4 4.4-12.8 8.3-23.4 21.8-28.8 36.5-3.9 10.5-5 26.5-2.4 36.6 2.7 11 8.2 20.6 16.6 29.1 27.6 27.9 69.1 29.6 112.5 4.8l8.8-5.1 10.1 10.1 10.1 10.1h53.6l-.6-2.3c-1.7-5.6-6.4-11.3-21.1-25.7-8.8-8.5-16.8-17.2-17.9-19.2l-1.9-3.7 8.2-20.4c4.5-11.1 9-23.6 10.1-27.7 2.3-9.2 3.5-20.8 2.6-25l-.7-3-19.1.2-19.2.3-.7 9c-.4 4.9-1.2 11.9-1.9 15.5-1.4 7.8-5.7 19-7.2 19-.6 0-6.8-5.5-13.7-12.3-6.9-6.7-18.2-17.5-25.2-24-14.9-13.8-23.9-24.6-28.2-33.7-2.7-5.7-3-7.6-3-15.5-.1-14.5 5-22.4 15.8-24.4 10.1-1.9 17.1 2.2 22.7 13l1.9 3.9h42v-3c0-10.4-6.4-24.4-14.5-31.8-11.8-10.8-27.9-16.3-47.5-16.1-6.3.1-14 .7-17 1.3m11.9 151.6c13.2 11.8 24.3 22.3 24.6 23.3 1.7 4.7-8.2 11-23.4 14.8-10.2 2.6-16.5 2-25-2.2-7-3.5-11.4-8.1-15-15.9-2.2-4.6-2.6-6.9-2.6-14.5 0-7.7.4-9.8 2.7-14.7 1.4-3.1 4.5-7.7 6.9-10.2 3.7-4.1 4.4-4.5 6-3.4 1 .7 12.6 11 25.8 22.8m668-151.7c-6.4 1.8-13.2 6-16.9 10.4-6.2 7.6-6 3.8-5.8 114.3l.3 100.5 22.4.3c21.9.2 22.5.2 24.8-2l2.3-2.1v-72.6l.1-72.6 2 2.5c3.2 3.8 11.6 21.1 26 53.3 27.6 61.9 42.8 86.1 58.5 93.4 5 2.3 7.2 2.8 14.9 2.8 8.4 0 9.4-.2 15.5-3.5 3.6-1.9 9.4-6.3 13-9.7l6.5-6.1v-207.7l-24.7-.3-24.8-.2-.2 69.9-.3 69.9-30.9-60.6c-17-33.4-32.3-62.6-33.9-64.9-3.6-5.1-11.2-10.5-18.7-13.4-6.9-2.7-23.2-3.5-30.1-1.6M2605 2441.5V2554h49v-83.7l2.3-2.1c2.3-2.2 2.5-2.2 46.5-2.2h44.2v-42h-93v-48h46.8c40.7 0 47-.2 49-1.6 2.2-1.5 2.2-1.9 2.2-23.5V2329h-147zm180.5-111.3c-.3.7-.4 51.2-.3 112.3l.3 111 24.8.3 24.7.2v-42.3c0-39.8.1-42.5 1.8-44s6.4-1.7 46.5-1.7h44.7l-.2-20.8-.3-20.7-46.2-.3-46.3-.2v-48h93.7l2.1-2.3c2.1-2.2 2.2-3.1 2.2-23.5V2329h-73.5c-57.9 0-73.7.3-74 1.2m181 0c-.3.7-.4 51.2-.3 112.3l.3 111 76.3.3 76.2.2v-47h-103v-46h95v-44h-95v-41h98.7l2.1-2.3c2.1-2.2 2.2-3.1 2.2-23.5V2329h-76c-59.9 0-76.2.3-76.5 1.2m188.5 111.3V2554h150v-47h-101v-46h96v-44h-96v-41h101v-47h-150zm540-89v23.5h62v178l25.8-.2 25.7-.3.3-88.7.2-88.8 30.8-.2 30.7-.3.3-23.3.2-23.2h-176zm669 89V2554h52v-225h-52z"/><path fill="red" d="M5893 1613.7c-58.5 3.5-112.3 34.9-145.3 84.7-23.2 35.1-36.2 81.4-34.4 122.6 2.2 49.1 20.6 91.2 54.3 124.1 38.7 37.5 88.5 56.7 141.9 54.6 79.2-3.2 150.3-47.7 178.5-111.8 8.2-18.6 11.6-34.3 13.2-60.3 1.3-22.3-.1-51.9-3.1-65.6-11.4-51.1-55.7-102.7-111.9-130.5-29.2-14.4-58-19.9-93.2-17.8"/></svg>