<svg xmlns="http://www.w3.org/2000/svg" version="1.0" viewBox="0 0 199 97"><path stroke="#000" stroke-width="1.1" d="M109.4 26.5c-6.5 0-6.5 0-6.2 17.6.3 15.7.5 17.9 2.2 19.8 1.6 1.7 3.1 2.1 8.3 2.1 6.3 0 6.3 0 6.3-4.5 0-3.4-.4-4.5-1.5-4.5-.9 0-2-1.1-2.5-2.4s-.7-3.7-.6-5.3c.3-2.4.8-2.8 4-3.1 3.6-.3 3.6-.3 3.6-5.3 0-5.1 0-5.1-3.2-4.7-3.3.3-3.3.3-3.6-4.7s-.3-5-6.8-5zm-26.9 9.2c-1.6-.3-4.4-.1-6.2.4s-4.4 2.4-5.8 4.3c-1.4 1.8-2.8 5.3-3.1 7.7s-.1 6.2.5 8.5c.6 2.2 2.3 5.2 3.8 6.6 1.6 1.5 3.9 2.7 5.3 2.8s3.5.2 4.7.1 3.1-1.1 4.3-2.3c2-2.2 2-2.2 2 0 0 2 .5 2.2 5.5 2.2C99 66 99 66 99 51s0-15-5-15c-3.6 0-5.2.4-5.6 1.5-.6 1.4-.8 1.4-1.8.1-.6-.8-2.4-1.6-4.1-1.9zm1.1 9.3c1.3 0 2.8.9 3.4 1.9.5 1.1 1 3.1 1 4.4s-.9 3.2-1.9 4.1c-1.3 1.2-2.7 1.5-4.1 1.1-1.2-.4-2.5-1.8-3-3.1s-.7-3.2-.3-4.1c.3-1 1-2.4 1.6-3.1.5-.6 2-1.2 3.3-1.2zm61.2-8.9c-1.8-.3-4.9-.5-6.8-.3s-5 1.5-6.8 2.8c-1.7 1.4-3.9 3.8-4.7 5.4s-1.5 4.9-1.5 7.3c0 2.9.8 5.5 2.3 7.7 1.2 1.8 3.4 4.2 4.9 5.3 1.8 1.4 4.3 2 8.2 2.1 4.1 0 6.3-.5 8.3-2 1.5-1.2 3.8-3.6 5.1-5.4 1.5-2.2 2.2-4.8 2.2-7.7 0-2.5-.7-6.1-1.6-8-1-1.9-2.7-4.1-4-5-1.3-.8-3.8-1.8-5.6-2.2zM141 45c1.1 0 2.7 1.1 3.5 2.4 1 1.5 1.4 3.3.9 5-.3 1.5-1.4 3.1-2.4 3.6-1 .6-2.3 1-2.9 1-.5 0-1.7-.7-2.5-1.6-.9-.8-1.6-2.8-1.6-4.4s.7-3.6 1.6-4.4c.8-.9 2.4-1.6 3.4-1.6zm-89.4-9c-2.8 0-6.4.7-8.1 1.6-1.6.8-4.2 3.1-5.7 5.1-2.2 2.8-2.8 4.7-2.8 8.6q0 4.95 2.1 8.4c1.1 1.8 3.3 3.9 4.7 4.7 1.5.7 3.9 1.6 5.4 2 1.5.3 4.6.2 6.9-.3 2.4-.5 5.5-2.2 7-3.8 1.5-1.5 3.1-4 3.4-5.6.7-2.7.7-2.7-4.9-2.7-3.1 0-5.6.4-5.6.9s-.8 1.2-1.9 1.6c-1 .3-2.6.2-3.5-.1-1-.4-2.2-1.7-2.7-3-.4-1.3-.6-3.7-.3-5.4.5-2.5 1.1-3 3.5-3 1.5 0 3.4.7 4.3 1.5.9.9 3.4 1.5 6.6 1.5 5.2 0 5.2 0 4.6-2.8-.4-1.5-2.3-4.2-4.3-6-3.1-2.7-4.4-3.2-8.7-3.2z"/><circle cx="160" cy="62" r="3" fill="#ff3300" /></svg>