<svg xmlns="http://www.w3.org/2000/svg" version="1.0" viewBox="0 0 418 119"><path d="M66.6 20.5c-5.2 1.8-8.5 5.3-9.6 10.1-.5 2.1-1 18.6-1 36.6V100h18V72.3c0-15.2.2-27.4.5-27.1s3.2 11 6.5 23.7c3.2 12.8 6.8 24.7 8 26.6 2.5 4 9.4 7.1 13.7 6.1 8-2 9.6-5.2 16.3-32.1 2.9-11.5 5.6-21.9 6.1-23 .4-1.1.8 10.3.8 25.7l.1 27.8h18V66c0-37.6-.2-38.8-6.1-43.2q-6.3-4.65-13.2-2.7c-7.3 2-11.1 7-14.1 18.9-1 3.6-3.5 13.4-5.7 21.9-3.7 14.6-4.5 17-5.2 16-.2-.2-3-10.3-6.2-22.4s-6.6-23.6-7.6-25.6c-2.1-4.2-7.2-8.9-9.7-8.9-.9 0-2.6-.2-3.7-.5s-3.8.2-5.9 1m159.7-.4c-4.3 1.3-8.1 6-8.8 11.2-.3 2.3-.5 18.6-.3 36.2l.3 32 8.7.3 8.8.3.2-26.3.3-26.3 11.7 23.6c12.5 25.2 15.4 29.2 22.2 30.5 4.4.8 10.5-2 12.3-5.6.9-1.9 1.3-11.9 1.3-38.8V21h-17l-.2 25.2-.3 25.3-12-24c-9.8-19.5-12.6-24.3-15-25.7-4.1-2.2-8.4-2.8-12.2-1.7M155 60.5V100h54V84h-35V67h33V52h-33V37h35V21h-54zm139-37.8v27.8c0 29.6.5 32.4 7.2 40 7.6 8.6 20.5 12.7 32.8 10.5 11.5-2.1 19.2-7.5 24.1-17 2.3-4.4 2.4-5.3 2.7-33.8l.3-29.3-9.1.3-9.2.3-.1 26.5c-.2 23.6-.4 26.9-2 30-2.9 5.4-6.1 7.3-12.7 7.4-6.3.1-9.5-1.5-13.4-6.8-2-2.6-2.1-4.3-2.4-30.2l-.3-27.4h-9c-7.8 0-8.9.2-8.9 1.7"/></svg>